# xmcd
#
# Track frame offsets:
#	150
#	15060
#	31097
#	46382
#	62900
#	77452
#	93595
#	109680
#	127165
#	143867
#	160760
#	173472
#	191595
#
# Disc length: 2758 seconds
#
# Revision: 1
# Processed by: cddbd v1.5.1PL0 Copyright (c) Steve Scherf et al.
# Submitted via: CDex 1.50Beta5
#
DISCID=9a0ac40d
DTITLE=島倉千代子 - おんなの一生 Disc 2
DYEAR=1990
DGENRE=World
TTITLE0=この世の花
TTITLE1=りんどう峠
TTITLE2=逢いたいなァあの人に
TTITLE3=東京だよおっ母さん
TTITLE4=思い出さん今日は
TTITLE5=からたち日記
TTITLE6=おもいで日記
TTITLE7=哀愁のからまつ林
TTITLE8=他国の雨
TTITLE9=花散る下田
TTITLE10=襟裳岬
TTITLE11=恋しているんだもん
TTITLE12=星空に両手を
EXTD=
EXTT0=
EXTT1=
EXTT2=
EXTT3=
EXTT4=
EXTT5=
EXTT6=
EXTT7=
EXTT8=
EXTT9=
EXTT10=
EXTT11=
EXTT12=
PLAYORDER=
